<svg id="svg" version="1.1" xmlns="http://www.w3.org/2000/svg" xmlns:xlink="http://www.w3.org/1999/xlink" width="400" height="399.66159052453474" viewBox="0, 0, 400,399.66159052453474"><g id="svgg"><path id="path0" d="M197.845 0.186 C 192.977 0.753,188.441 4.048,186.375 8.518 C 184.984 11.529,185.046 10.645,184.983 28.308 L 184.928 44.010 184.156 44.467 C 180.618 46.563,176.512 50.671,174.413 54.212 L 173.953 54.988 108.169 55.036 L 42.386 55.083 41.046 55.472 C 26.716 59.626,26.395 80.463,40.606 84.072 C 41.298 84.247,41.886 84.458,41.912 84.539 C 41.950 84.655,13.970 227.915,13.620 229.399 L 13.530 229.780 23.735 229.780 L 33.940 229.780 44.893 172.970 C 50.917 141.724,55.844 116.087,55.842 115.998 C 55.817 115.064,58.040 123.810,70.323 172.970 L 84.517 229.780 94.723 229.780 C 104.366 229.780,104.925 229.764,104.838 229.484 C 104.625 228.794,68.528 85.274,68.528 85.115 C 68.528 84.996,85.116 84.942,121.024 84.944 L 173.519 84.947 174.167 86.054 C 176.083 89.331,180.377 93.573,183.629 95.402 L 184.433 95.854 184.433 222.796 L 184.433 349.738 165.948 349.784 L 147.462 349.831 146.362 350.226 C 143.191 351.367,140.877 353.776,139.835 357.022 C 139.580 357.817,139.526 358.810,139.466 363.832 L 139.395 369.712 109.714 369.712 L 80.034 369.712 80.034 384.687 L 80.034 399.662 199.915 399.662 L 319.797 399.662 319.797 384.687 L 319.797 369.712 289.863 369.712 L 259.928 369.712 259.857 363.832 C 259.797 358.810,259.743 357.817,259.488 357.022 C 258.441 353.761,256.147 351.372,252.961 350.226 L 251.861 349.831 233.376 349.784 L 214.890 349.738 214.893 222.796 L 214.896 95.854 216.003 95.207 C 219.285 93.288,223.606 88.919,225.361 85.747 L 225.804 84.946 273.816 84.943 C 309.482 84.941,321.827 84.990,321.827 85.133 C 321.827 85.358,294.100 229.047,293.972 229.484 C 293.891 229.764,294.453 229.780,304.113 229.780 L 314.340 229.780 314.427 229.315 C 316.732 216.955,336.317 115.950,336.392 116.035 C 336.452 116.103,342.774 141.723,350.441 172.969 L 364.382 229.779 374.588 229.779 C 384.229 229.780,384.790 229.764,384.707 229.484 C 384.521 228.854,348.393 85.210,348.393 85.100 C 348.393 85.036,350.353 84.943,352.750 84.894 C 356.421 84.818,357.333 84.747,358.545 84.444 C 373.369 80.741,373.543 59.750,358.785 55.472 L 357.445 55.083 291.661 55.036 L 225.878 54.988 225.418 54.212 C 223.319 50.671,219.212 46.563,215.675 44.467 L 214.903 44.010 214.847 28.308 C 214.792 12.736,214.788 12.594,214.417 11.198 C 212.438 3.746,205.704 -0.728,197.845 0.186 M202.880 60.372 C 210.190 62.939,212.322 71.642,206.951 76.989 C 198.963 84.943,186.011 75.616,190.972 65.482 C 193.068 61.203,198.549 58.850,202.880 60.372 M0.102 245.981 C 2.382 269.354,54.393 282.580,93.147 269.642 C 109.299 264.249,118.889 255.698,119.872 245.812 L 119.969 244.839 59.980 244.839 L -0.009 244.839 0.102 245.981 M279.958 245.812 C 280.941 255.698,290.532 264.249,306.684 269.642 C 345.438 282.580,397.448 269.354,399.729 245.981 L 399.840 244.839 339.851 244.839 L 279.862 244.839 279.958 245.812 " stroke="none" fill="#A6A6A6" fill-rule="evenodd"></path></g></svg>