<svg id="svg" version="1.1" xmlns="http://www.w3.org/2000/svg" xmlns:xlink="http://www.w3.org/1999/xlink" width="400" height="421.59194876486737" viewBox="0, 0, 400,421.59194876486737"><g id="svgg"><path id="path0" d="M341.175 0.197 C 306.365 2.684,282.750 35.685,291.232 69.991 C 292.221 73.993,293.194 76.255,305.864 104.026 C 325.747 147.604,340.046 177.857,341.334 179.072 C 343.645 181.251,347.160 180.959,348.800 178.453 C 350.802 175.393,395.805 77.782,397.160 73.562 C 409.338 35.620,380.180 -2.591,341.175 0.197 M350.374 33.015 C 368.909 37.634,374.999 60.313,361.225 73.421 C 347.255 86.716,324.363 78.647,321.381 59.378 C 318.904 43.375,334.617 29.088,350.374 33.015 M303.019 160.216 C 295.661 160.942,273.055 164.030,272.730 164.354 C 272.641 164.444,277.910 195.812,278.036 195.938 C 278.074 195.975,280.725 195.632,283.928 195.175 C 291.192 194.139,297.002 193.453,307.478 192.395 L 308.734 192.268 308.625 191.239 C 308.566 190.673,307.976 183.582,307.314 175.480 C 306.017 159.609,306.049 159.916,305.715 159.950 C 305.591 159.963,304.378 160.083,303.019 160.216 M246.935 169.459 C 236.567 172.216,220.234 177.929,217.226 179.851 C 217.020 179.982,228.952 207.919,229.801 209.292 C 229.911 209.470,230.733 209.212,233.225 208.217 C 239.847 205.576,250.095 202.054,255.589 200.532 L 257.838 199.909 257.725 199.268 C 257.012 195.246,250.344 168.797,250.035 168.766 C 249.840 168.746,248.445 169.058,246.935 169.459 M193.018 193.707 C 181.359 203.095,173.433 217.368,172.708 230.284 L 172.656 231.199 188.204 232.239 C 196.755 232.812,204.001 233.285,204.305 233.292 L 204.859 233.303 205.067 231.784 C 205.600 227.875,208.169 223.732,212.720 219.443 L 214.614 217.658 204.736 205.124 C 199.303 198.230,194.788 192.564,194.701 192.534 C 194.615 192.503,193.857 193.031,193.018 193.707 M64.020 197.444 C 18.323 201.266,-11.556 247.435,4.296 289.730 C 8.388 300.649,62.289 416.531,64.346 418.834 C 67.450 422.308,73.197 421.527,75.317 417.344 C 83.993 400.226,131.902 296.594,134.301 289.757 C 140.501 272.087,139.194 251.845,130.756 234.837 C 118.682 210.502,91.305 195.162,64.020 197.444 M74.868 237.125 C 98.023 241.834,106.992 269.797,90.793 286.773 C 75.233 303.079,48.227 296.929,41.020 275.439 C 33.989 254.474,53.207 232.721,74.868 237.125 M194.145 253.270 C 187.049 258.203,181.125 262.308,180.979 262.392 C 179.937 262.991,189.532 272.183,195.803 276.593 C 201.066 280.295,213.544 286.804,214.163 286.171 C 214.290 286.041,226.005 256.684,225.946 256.642 C 225.916 256.620,225.110 256.335,224.154 256.008 C 218.620 254.116,211.603 249.483,208.234 245.496 C 207.681 244.841,207.187 244.304,207.136 244.303 C 207.086 244.302,201.240 248.338,194.145 253.270 M244.932 262.934 C 244.885 263.091,242.987 269.973,240.715 278.225 C 238.443 286.478,236.543 293.364,236.493 293.528 C 236.368 293.942,235.925 293.814,247.118 296.619 C 252.653 298.006,259.641 299.772,262.645 300.542 C 265.650 301.313,268.133 301.918,268.163 301.886 C 268.192 301.855,269.874 294.954,271.900 286.551 C 273.926 278.147,275.621 271.148,275.666 270.997 C 275.732 270.777,274.647 270.441,270.217 269.309 C 259.573 266.590,250.389 264.186,247.714 263.420 C 245.399 262.757,245.005 262.688,244.932 262.934 M293.430 291.954 C 290.924 300.357,288.907 307.266,288.947 307.306 C 288.988 307.346,290.874 307.993,293.138 308.745 C 299.620 310.896,306.308 313.606,312.641 316.649 L 315.767 318.150 323.254 303.989 C 327.372 296.200,330.764 289.763,330.792 289.684 C 330.860 289.492,324.000 286.175,320.037 284.485 C 312.946 281.461,307.612 279.568,298.261 276.757 C 298.042 276.691,297.071 279.744,293.430 291.954 M340.680 316.697 L 329.395 327.996 330.492 329.186 C 334.115 333.111,337.413 340.135,338.418 346.066 C 338.482 346.443,338.592 346.753,338.663 346.754 C 338.877 346.758,370.262 343.046,370.306 343.013 C 370.328 342.995,370.184 341.927,369.986 340.638 C 368.062 328.100,362.825 317.208,354.046 307.483 C 353.011 306.336,352.119 305.398,352.065 305.398 C 352.010 305.398,346.887 310.483,340.680 316.697 M336.526 359.546 C 332.690 364.189,327.994 367.771,323.152 369.750 C 322.093 370.182,321.118 370.537,320.985 370.538 C 320.839 370.539,320.784 370.666,320.846 370.860 C 321.015 371.390,333.540 400.024,333.652 400.136 C 333.923 400.407,340.513 397.203,344.007 395.101 C 350.949 390.926,357.201 385.480,362.224 379.231 C 364.245 376.717,366.549 373.426,366.386 373.286 C 366.305 373.217,360.229 369.882,352.882 365.876 C 345.535 361.869,339.187 358.397,338.776 358.160 L 338.027 357.730 336.526 359.546 M300.640 377.607 C 295.680 378.983,284.669 381.193,276.121 382.529 C 274.360 382.805,272.856 383.086,272.779 383.155 C 272.659 383.263,277.335 414.622,277.496 414.791 C 277.896 415.210,307.871 409.461,310.472 408.467 C 310.780 408.349,303.369 380.247,302.274 377.380 C 302.220 377.240,301.710 377.311,300.640 377.607 M248.765 385.549 C 245.495 385.970,235.690 386.657,226.441 387.114 C 223.019 387.283,220.211 387.431,220.200 387.444 C 220.188 387.456,220.535 394.506,220.970 403.111 C 221.405 411.715,221.764 418.985,221.768 419.265 L 221.775 419.775 223.376 419.673 C 224.257 419.617,227.571 419.447,230.741 419.296 C 240.138 418.847,254.394 417.797,254.607 417.538 C 254.642 417.495,251.551 386.280,251.425 385.407 C 251.413 385.324,249.880 385.406,248.765 385.549 M195.700 388.671 C 194.392 388.744,187.454 388.866,180.284 388.941 L 167.246 389.077 167.246 405.272 L 167.246 421.468 178.545 421.344 C 188.890 421.230,199.805 420.932,199.980 420.758 C 200.019 420.719,199.816 413.438,199.528 404.579 L 199.005 388.472 198.542 388.505 C 198.287 388.523,197.008 388.598,195.700 388.671 M112.534 405.215 L 112.534 421.409 128.728 421.409 L 144.922 421.409 144.922 405.215 L 144.922 389.021 128.728 389.021 L 112.534 389.021 112.534 405.215 " stroke="none" fill="#A6A6A6" fill-rule="evenodd"></path></g></svg>