<svg id="svg" version="1.1" xmlns="http://www.w3.org/2000/svg" xmlns:xlink="http://www.w3.org/1999/xlink" width="400" height="434.4294003868472" viewBox="0, 0, 400,434.4294003868472"><g id="svgg"><path id="path0" d="M211.315 0.309 C 152.403 2.275,99.195 26.036,59.297 68.194 C -21.890 153.979,-19.250 289.730,65.209 372.247 C 148.948 454.059,280.701 454.959,366.982 374.308 L 370.618 370.909 346.395 346.685 L 322.172 322.461 321.482 323.014 C 321.103 323.317,320.401 323.975,319.923 324.475 C 305.652 339.377,280.446 353.785,257.337 360.249 C 162.729 386.713,68.595 315.376,68.595 217.215 C 68.595 120.811,159.645 49.735,253.191 73.114 C 275.536 78.698,294.098 88.293,312.951 104.004 C 313.000 104.044,305.601 111.516,296.511 120.607 L 279.982 137.137 339.894 137.137 L 399.807 137.137 399.807 77.225 L 399.807 17.312 380.671 36.447 C 363.062 54.056,361.507 55.560,361.186 55.306 C 360.994 55.153,360.053 54.341,359.094 53.500 C 318.955 18.294,264.095 -1.452,211.315 0.309 " stroke="none" fill="#A6A6A6" fill-rule="evenodd"></path></g></svg>