<svg id="svg" version="1.1" xmlns="http://www.w3.org/2000/svg" xmlns:xlink="http://www.w3.org/1999/xlink" width="400" height="304.047093451067" viewBox="0, 0, 400,304.047093451067"><g id="svgg"><path id="path0" d="M163.880 0.226 C 163.829 0.309,163.351 0.330,162.818 0.275 C 162.200 0.210,161.809 0.238,161.738 0.353 C 161.677 0.451,161.392 0.496,161.105 0.453 C 160.543 0.367,156.896 0.833,154.793 1.260 C 154.083 1.404,153.432 1.478,153.346 1.425 C 153.260 1.371,153.139 1.409,153.078 1.509 C 153.017 1.608,152.855 1.647,152.718 1.594 C 152.582 1.542,152.386 1.551,152.283 1.615 C 152.180 1.678,151.868 1.754,151.589 1.782 C 151.310 1.811,150.262 2.054,149.259 2.323 C 148.256 2.593,147.375 2.775,147.301 2.730 C 147.227 2.684,147.167 2.733,147.167 2.837 C 147.167 2.942,147.073 2.996,146.958 2.957 C 146.844 2.918,145.887 3.176,144.833 3.530 C 143.779 3.885,142.704 4.212,142.444 4.259 C 142.183 4.305,141.325 4.604,140.536 4.922 C 139.747 5.240,139.017 5.500,138.914 5.500 C 138.810 5.500,138.108 5.768,137.353 6.095 C 136.598 6.422,135.853 6.715,135.698 6.746 C 135.046 6.877,127.957 10.348,125.583 11.698 C 124.758 12.167,123.858 12.675,123.583 12.827 C 122.540 13.401,117.408 16.799,115.811 17.972 C 110.428 21.927,105.885 26.078,101.190 31.334 C 99.756 32.938,98.201 34.738,97.734 35.334 C 94.270 39.748,91.914 43.230,89.389 47.667 C 88.894 48.538,88.402 49.400,88.297 49.583 C 86.598 52.537,83.959 58.470,82.438 62.750 C 82.243 63.300,82.027 63.775,81.957 63.806 C 81.888 63.837,81.867 63.919,81.910 63.989 C 81.953 64.059,81.732 64.831,81.420 65.706 C 81.107 66.580,80.897 67.342,80.954 67.398 C 81.010 67.454,80.964 67.500,80.851 67.500 C 80.739 67.500,80.687 67.565,80.736 67.644 C 80.785 67.724,80.604 68.498,80.333 69.364 C 80.062 70.231,79.807 71.122,79.766 71.345 C 79.725 71.568,79.677 71.787,79.660 71.833 C 79.642 71.879,79.642 72.048,79.658 72.208 C 79.674 72.369,79.603 72.500,79.501 72.500 C 79.398 72.500,79.353 72.564,79.402 72.642 C 79.450 72.720,79.261 73.714,78.983 74.850 C 78.704 75.985,78.451 77.178,78.422 77.499 C 78.392 77.820,78.351 78.121,78.331 78.167 C 78.310 78.212,78.306 78.317,78.322 78.400 C 78.337 78.482,78.301 78.670,78.241 78.817 C 78.182 78.963,78.105 79.406,78.071 79.800 C 77.985 80.795,77.935 80.837,76.865 80.807 C 75.384 80.766,72.972 80.971,70.421 81.356 C 69.135 81.549,67.840 81.717,67.542 81.729 C 67.245 81.740,67.001 81.815,67.000 81.894 C 67.000 81.974,66.811 82.003,66.579 81.958 C 66.348 81.914,66.115 81.948,66.062 82.034 C 66.010 82.119,65.871 82.153,65.754 82.108 C 65.637 82.063,64.658 82.249,63.580 82.522 C 62.501 82.794,61.513 82.977,61.384 82.927 C 61.255 82.878,61.195 82.911,61.251 83.002 C 61.307 83.093,61.217 83.176,61.052 83.188 C 60.267 83.243,59.923 83.327,58.069 83.911 C 56.977 84.255,55.932 84.564,55.746 84.598 C 55.561 84.632,54.736 84.924,53.914 85.246 C 53.092 85.569,52.338 85.833,52.239 85.833 C 52.140 85.833,51.434 86.104,50.670 86.435 C 49.906 86.766,49.199 87.053,49.099 87.071 C 47.590 87.354,39.223 91.892,35.000 94.720 C 32.889 96.133,32.178 96.660,29.250 98.980 C 26.418 101.224,23.219 104.223,20.607 107.083 C 19.770 108.000,19.028 108.731,18.959 108.708 C 18.890 108.685,18.852 108.725,18.875 108.795 C 18.898 108.866,18.204 109.814,17.333 110.901 C 16.462 111.988,15.637 113.050,15.500 113.262 C 15.362 113.473,14.755 114.382,14.151 115.281 C 13.546 116.181,12.764 117.404,12.412 118.000 C 12.060 118.596,11.486 119.550,11.136 120.121 C 10.786 120.692,10.500 121.207,10.500 121.267 C 10.500 121.327,10.258 121.798,9.963 122.313 C 9.121 123.780,6.690 128.968,6.795 129.072 C 6.847 129.124,6.814 129.167,6.722 129.167 C 6.631 129.167,6.555 129.260,6.554 129.375 C 6.553 129.490,6.310 130.134,6.014 130.806 C 5.718 131.479,5.447 132.178,5.411 132.361 C 5.376 132.544,5.111 133.306,4.822 134.055 C 4.533 134.804,4.263 135.599,4.223 135.822 C 4.182 136.044,3.884 137.047,3.560 138.049 C 3.236 139.052,2.945 140.069,2.914 140.311 C 2.883 140.552,2.585 141.782,2.253 143.043 C 1.920 144.304,1.691 145.405,1.744 145.490 C 1.796 145.574,1.766 145.689,1.677 145.744 C 1.588 145.799,1.557 145.955,1.609 146.091 C 1.661 146.227,1.621 146.437,1.520 146.559 C 1.419 146.681,1.376 146.820,1.424 146.868 C 1.472 146.916,1.361 147.809,1.178 148.853 C 0.574 152.306,0.469 153.293,0.246 157.667 C 0.140 159.743,0.143 163.679,0.252 165.667 C 0.300 166.537,0.372 167.876,0.412 168.640 C 0.488 170.100,0.846 172.804,1.269 175.125 C 1.407 175.881,1.474 176.575,1.417 176.666 C 1.360 176.758,1.392 176.833,1.488 176.833 C 1.584 176.833,1.658 177.002,1.652 177.208 C 1.635 177.766,1.754 178.373,2.319 180.608 C 2.600 181.722,2.872 182.902,2.925 183.229 C 2.977 183.557,3.276 184.587,3.589 185.518 C 3.903 186.449,4.119 187.276,4.070 187.355 C 4.021 187.435,4.044 187.500,4.121 187.500 C 4.199 187.500,4.273 187.631,4.285 187.792 C 4.298 187.952,4.540 188.683,4.824 189.417 C 5.107 190.150,5.368 190.900,5.403 191.083 C 5.438 191.267,5.769 192.110,6.138 192.958 C 6.507 193.806,6.776 194.500,6.736 194.500 C 6.696 194.500,6.965 195.100,7.333 195.833 C 7.702 196.567,7.956 197.167,7.898 197.167 C 7.840 197.167,7.867 197.260,7.959 197.375 C 8.050 197.490,8.521 198.333,9.004 199.250 C 10.796 202.646,11.357 203.597,13.447 206.791 C 17.180 212.493,21.659 217.629,27.331 222.710 C 31.572 226.509,35.420 229.253,41.333 232.692 C 41.929 233.039,42.510 233.403,42.625 233.501 C 42.740 233.599,42.833 233.633,42.833 233.576 C 42.833 233.519,43.077 233.621,43.375 233.802 C 44.058 234.217,50.084 237.000,50.299 237.000 C 50.387 237.000,50.868 237.181,51.370 237.403 C 52.421 237.868,57.088 239.498,57.583 239.574 C 57.767 239.601,58.015 239.634,58.135 239.645 C 58.255 239.657,58.307 239.741,58.251 239.831 C 58.194 239.923,58.256 239.955,58.390 239.904 C 58.522 239.853,59.276 240.008,60.065 240.249 C 60.854 240.490,61.706 240.711,61.958 240.741 C 62.210 240.771,62.417 240.809,62.417 240.826 C 62.417 240.843,62.604 240.884,62.833 240.919 C 63.063 240.953,64.300 241.202,65.583 241.472 C 68.025 241.986,68.245 242.019,69.125 242.007 C 69.423 242.003,69.667 242.083,69.667 242.185 C 69.667 242.286,69.782 242.325,69.924 242.270 C 70.066 242.216,71.134 242.283,72.298 242.419 C 74.034 242.622,77.377 242.667,90.885 242.667 L 107.355 242.667 106.082 241.125 C 105.381 240.277,103.933 238.505,102.863 237.188 C 101.792 235.870,100.617 234.429,100.250 233.986 C 99.883 233.542,98.833 232.258,97.917 231.131 C 96.367 229.228,95.016 227.623,93.246 225.583 C 91.505 223.577,87.794 219.252,86.417 217.625 L 84.917 215.852 80.717 215.843 C 77.865 215.836,75.886 215.748,74.550 215.569 C 73.468 215.423,72.382 215.291,72.136 215.274 C 71.891 215.258,71.636 215.191,71.570 215.126 C 71.504 215.060,71.274 215.050,71.059 215.104 C 70.829 215.162,70.667 215.129,70.667 215.023 C 70.667 214.925,70.560 214.885,70.430 214.935 C 70.300 214.985,69.306 214.787,68.221 214.496 C 67.137 214.205,66.100 213.949,65.917 213.926 C 65.353 213.857,60.964 212.317,60.131 211.897 C 59.698 211.679,59.269 211.500,59.178 211.500 C 58.989 211.500,55.224 209.659,53.833 208.887 C 43.730 203.275,34.846 193.392,30.491 182.920 C 30.111 182.006,29.775 181.129,29.745 180.973 C 29.715 180.816,29.497 180.152,29.260 179.497 C 29.024 178.842,28.869 178.243,28.916 178.167 C 28.963 178.091,28.929 178.003,28.839 177.973 C 28.750 177.942,28.642 177.729,28.601 177.500 C 28.559 177.271,28.513 177.083,28.498 177.083 C 28.484 177.083,28.450 176.933,28.422 176.750 C 28.395 176.567,28.172 175.687,27.928 174.796 C 27.684 173.904,27.455 172.892,27.419 172.546 C 27.382 172.200,27.340 171.917,27.325 171.917 C 27.309 171.917,27.276 171.692,27.252 171.417 C 27.227 171.142,27.087 170.167,26.940 169.250 C 26.266 165.038,26.264 159.449,26.934 155.086 C 27.076 154.168,27.200 153.173,27.212 152.875 C 27.223 152.577,27.294 152.333,27.370 152.333 C 27.445 152.333,27.459 152.146,27.402 151.917 C 27.335 151.650,27.367 151.500,27.492 151.500 C 27.599 151.500,27.641 151.427,27.586 151.337 C 27.488 151.180,28.137 148.368,28.477 147.475 C 28.570 147.233,28.610 146.999,28.568 146.956 C 28.525 146.914,28.761 146.137,29.092 145.231 C 29.423 144.325,29.727 143.413,29.768 143.204 C 29.808 142.995,30.033 142.395,30.268 141.871 C 30.502 141.346,30.836 140.542,31.010 140.083 C 31.184 139.625,31.853 138.213,32.497 136.946 C 37.029 128.025,42.656 121.722,50.993 116.226 C 51.768 115.715,52.518 115.253,52.659 115.200 C 52.801 115.147,53.292 114.871,53.750 114.588 C 55.039 113.789,60.242 111.333,60.644 111.333 C 60.730 111.333,61.481 111.070,62.313 110.749 C 63.146 110.427,63.884 110.174,63.955 110.185 C 64.026 110.197,64.121 110.192,64.167 110.174 C 64.212 110.156,64.362 110.117,64.500 110.087 C 64.637 110.057,65.422 109.836,66.243 109.595 C 67.064 109.354,67.833 109.195,67.951 109.240 C 68.070 109.286,68.167 109.241,68.167 109.142 C 68.167 109.043,68.317 109.000,68.500 109.048 C 68.683 109.096,68.833 109.068,68.833 108.986 C 68.833 108.904,69.002 108.847,69.208 108.860 C 69.415 108.872,70.521 108.723,71.667 108.527 C 76.928 107.630,82.697 107.598,87.583 108.441 C 89.497 108.771,90.161 108.860,90.617 108.848 C 90.818 108.843,91.030 108.914,91.087 109.005 C 91.143 109.097,91.257 109.130,91.340 109.079 C 91.423 109.028,92.674 109.219,94.120 109.504 C 95.567 109.788,97.013 110.046,97.333 110.077 C 97.654 110.108,97.954 110.149,98.000 110.168 C 98.046 110.188,98.252 110.190,98.458 110.173 C 98.665 110.156,98.833 110.228,98.833 110.331 C 98.833 110.435,98.906 110.475,98.996 110.419 C 99.136 110.332,102.387 110.860,103.208 111.103 C 103.484 111.184,103.500 110.671,103.502 101.970 C 103.503 96.878,103.585 91.668,103.686 90.333 C 103.787 89.004,103.880 87.566,103.895 87.137 C 103.909 86.708,103.977 86.301,104.045 86.232 C 104.114 86.163,104.124 85.858,104.067 85.554 C 104.010 85.249,104.027 85.000,104.106 85.000 C 104.185 85.000,104.261 84.643,104.276 84.208 C 104.290 83.773,104.509 82.517,104.763 81.417 C 105.018 80.317,105.220 79.248,105.214 79.042 C 105.207 78.835,105.273 78.667,105.361 78.667 C 105.448 78.667,105.472 78.589,105.413 78.494 C 105.354 78.399,105.582 77.444,105.920 76.372 C 106.258 75.300,106.560 74.234,106.591 74.003 C 106.622 73.772,106.906 72.931,107.221 72.134 C 107.537 71.336,107.753 70.642,107.703 70.592 C 107.652 70.541,107.703 70.500,107.815 70.500 C 107.928 70.500,107.978 70.432,107.926 70.348 C 107.833 70.198,108.352 68.921,109.786 65.774 C 114.691 55.008,123.178 45.061,133.141 38.402 C 135.424 36.876,136.365 36.334,136.542 36.443 C 136.639 36.503,136.673 36.478,136.617 36.388 C 136.562 36.298,136.944 35.990,137.467 35.704 C 139.286 34.705,144.143 32.346,144.612 32.233 C 144.871 32.170,145.346 31.989,145.667 31.829 C 146.393 31.468,151.075 29.855,151.741 29.737 C 152.011 29.690,152.983 29.427,153.902 29.154 C 154.820 28.882,155.668 28.695,155.786 28.741 C 155.904 28.786,156.000 28.746,156.000 28.651 C 156.000 28.556,156.131 28.492,156.292 28.509 C 156.452 28.525,156.621 28.525,156.667 28.508 C 156.712 28.491,156.938 28.451,157.167 28.420 C 157.396 28.389,158.408 28.203,159.417 28.007 C 160.425 27.811,161.679 27.623,162.203 27.589 C 162.726 27.555,163.227 27.482,163.316 27.428 C 163.404 27.373,163.800 27.328,164.196 27.328 C 164.593 27.328,165.517 27.299,166.250 27.264 C 167.914 27.184,172.197 27.184,173.750 27.263 C 174.392 27.296,175.241 27.324,175.637 27.326 C 176.033 27.327,176.429 27.373,176.518 27.428 C 176.606 27.482,177.107 27.555,177.631 27.589 C 178.155 27.623,179.408 27.811,180.417 28.007 C 181.425 28.203,182.438 28.389,182.667 28.420 C 182.896 28.451,183.083 28.490,183.083 28.507 C 183.083 28.523,183.318 28.557,183.605 28.581 C 183.892 28.606,184.979 28.869,186.022 29.166 C 187.064 29.464,188.029 29.730,188.167 29.757 C 188.304 29.785,188.454 29.822,188.500 29.840 C 188.546 29.858,188.636 29.865,188.701 29.856 C 188.765 29.846,189.515 30.107,190.367 30.434 C 191.219 30.762,192.067 31.051,192.250 31.076 C 192.433 31.101,193.033 31.325,193.583 31.574 C 194.133 31.822,194.921 32.140,195.333 32.281 C 196.911 32.817,203.429 36.182,203.246 36.365 C 203.202 36.409,203.272 36.444,203.400 36.444 C 203.826 36.444,207.780 39.081,210.575 41.229 C 215.023 44.647,219.866 49.624,223.241 54.245 C 224.277 55.663,225.667 57.683,225.667 57.771 C 225.667 57.821,225.880 58.174,226.140 58.556 C 227.202 60.113,228.229 62.000,230.695 66.917 C 232.120 69.758,233.521 72.549,233.808 73.118 L 234.331 74.152 235.124 73.884 C 235.560 73.736,236.567 73.367,237.362 73.063 C 238.157 72.760,238.984 72.479,239.200 72.440 C 239.416 72.401,240.062 72.171,240.637 71.929 C 241.211 71.687,241.747 71.530,241.827 71.579 C 241.906 71.628,241.998 71.589,242.030 71.492 C 242.063 71.395,242.238 71.288,242.420 71.254 C 242.601 71.220,242.750 71.181,242.750 71.167 C 242.750 71.153,242.862 71.118,243.000 71.089 C 243.137 71.060,243.828 70.805,244.535 70.523 C 245.241 70.240,245.997 69.977,246.215 69.937 C 246.432 69.898,247.236 69.668,248.001 69.426 C 248.766 69.185,249.495 69.026,249.621 69.075 C 249.747 69.123,249.805 69.089,249.749 68.998 C 249.693 68.907,249.783 68.824,249.948 68.812 C 250.569 68.768,250.970 68.697,253.083 68.254 C 254.275 68.005,255.680 67.776,256.205 67.746 C 256.730 67.716,257.231 67.647,257.318 67.593 C 257.405 67.539,257.800 67.501,258.196 67.507 C 259.132 67.524,266.368 67.524,267.304 67.507 C 267.700 67.501,268.097 67.540,268.186 67.595 C 268.275 67.650,268.747 67.720,269.235 67.749 C 269.723 67.779,270.938 67.971,271.936 68.177 C 272.934 68.382,273.900 68.570,274.083 68.594 C 274.267 68.619,274.454 68.654,274.500 68.672 C 274.546 68.690,274.715 68.692,274.875 68.675 C 275.035 68.659,275.167 68.707,275.167 68.781 C 275.167 68.856,275.346 68.927,275.564 68.939 C 275.782 68.952,276.588 69.169,277.355 69.422 C 278.122 69.675,278.881 69.876,279.042 69.868 C 279.202 69.860,279.333 69.912,279.333 69.983 C 279.333 70.053,279.434 70.111,279.556 70.111 C 279.877 70.111,283.436 71.462,284.397 71.949 C 284.844 72.175,285.331 72.385,285.480 72.414 C 285.628 72.444,286.215 72.731,286.783 73.053 C 287.351 73.375,287.914 73.664,288.033 73.695 C 288.542 73.826,290.912 75.264,293.583 77.062 C 299.514 81.053,306.611 89.417,310.289 96.750 C 311.643 99.449,313.666 104.303,313.667 104.856 C 313.668 104.981,313.932 105.868,314.255 106.827 C 314.578 107.786,314.808 108.660,314.766 108.769 C 314.724 108.878,314.737 109.014,314.794 109.072 C 314.852 109.129,314.913 109.268,314.932 109.380 C 314.950 109.492,315.201 110.732,315.490 112.135 C 315.780 113.538,315.972 114.826,315.918 114.996 C 315.864 115.166,315.897 115.353,315.992 115.412 C 316.087 115.471,316.160 115.758,316.154 116.051 C 316.148 116.344,316.184 116.996,316.234 117.500 C 316.284 118.004,316.374 122.030,316.433 126.446 L 316.541 134.475 326.396 134.543 C 334.781 134.602,336.498 134.655,337.917 134.901 C 338.833 135.060,339.808 135.215,340.083 135.244 C 340.358 135.273,340.621 135.314,340.667 135.335 C 340.712 135.356,340.818 135.360,340.902 135.344 C 341.161 135.295,345.357 136.495,346.500 136.945 C 347.096 137.179,348.033 137.545,348.583 137.757 C 350.105 138.345,351.841 139.269,351.705 139.419 C 351.638 139.493,351.681 139.497,351.801 139.428 C 351.930 139.353,352.286 139.478,352.673 139.734 C 353.032 139.972,353.363 140.167,353.409 140.167 C 353.482 140.167,356.263 141.981,357.243 142.667 C 360.048 144.632,364.320 149.131,366.658 152.583 C 367.738 154.178,369.827 158.004,370.086 158.859 C 370.150 159.074,370.459 159.837,370.770 160.554 C 371.082 161.272,371.295 161.928,371.242 162.013 C 371.190 162.097,371.218 162.167,371.305 162.167 C 371.391 162.167,371.498 162.373,371.541 162.625 C 371.584 162.877,371.820 163.755,372.064 164.576 C 372.309 165.397,372.472 166.166,372.426 166.284 C 372.381 166.403,372.421 166.500,372.516 166.500 C 372.610 166.500,372.674 166.631,372.658 166.792 C 372.642 166.952,372.647 167.121,372.669 167.167 C 372.691 167.212,372.728 167.438,372.750 167.667 C 372.773 167.896,372.913 168.968,373.062 170.050 C 373.417 172.620,373.420 177.342,373.069 179.950 C 372.923 181.032,372.781 182.142,372.754 182.417 C 372.726 182.692,372.691 182.917,372.675 182.917 C 372.660 182.917,372.618 183.179,372.583 183.500 C 372.548 183.821,372.318 184.758,372.072 185.583 C 371.827 186.408,371.554 187.403,371.466 187.793 C 371.378 188.183,371.238 188.461,371.155 188.409 C 371.072 188.358,371.044 188.422,371.094 188.551 C 371.143 188.680,370.986 189.227,370.745 189.768 C 370.503 190.308,370.282 190.864,370.253 191.004 C 370.169 191.410,368.423 194.906,368.027 195.462 C 367.829 195.741,367.667 196.020,367.667 196.083 C 367.667 196.180,366.660 197.723,365.545 199.333 C 363.821 201.825,359.402 206.259,356.908 208.000 C 354.406 209.747,348.627 213.023,348.370 212.840 C 348.344 212.822,347.632 213.068,346.786 213.387 C 345.063 214.036,341.643 215.014,340.885 215.074 C 340.612 215.096,340.301 215.167,340.194 215.233 C 340.087 215.299,339.944 215.320,339.875 215.280 C 339.806 215.240,339.150 215.320,338.417 215.459 C 337.321 215.666,334.783 215.724,324.174 215.783 L 311.264 215.854 310.750 216.385 C 310.324 216.826,301.061 227.177,300.132 228.250 C 299.168 229.363,297.360 231.530,295.917 233.300 C 295.000 234.424,293.912 235.753,293.500 236.254 C 290.904 239.402,288.000 243.008,288.000 243.081 C 288.000 243.244,336.047 243.165,337.667 242.999 C 338.537 242.909,340.112 242.708,341.167 242.551 C 342.221 242.394,343.290 242.262,343.542 242.258 C 343.794 242.253,344.000 242.186,344.000 242.107 C 344.000 242.028,344.183 242.010,344.406 242.066 C 344.630 242.122,344.860 242.091,344.918 241.998 C 344.976 241.904,345.081 241.863,345.151 241.907 C 345.221 241.950,346.285 241.724,347.514 241.404 C 348.744 241.084,349.991 240.783,350.285 240.735 C 350.579 240.687,351.428 240.426,352.172 240.155 C 352.915 239.884,353.593 239.705,353.678 239.757 C 353.764 239.810,353.833 239.774,353.833 239.677 C 353.833 239.579,353.958 239.500,354.111 239.500 C 356.472 239.500,369.106 232.661,373.722 228.884 C 373.982 228.672,374.265 228.541,374.352 228.595 C 374.438 228.648,374.488 228.625,374.462 228.544 C 374.437 228.463,375.167 227.736,376.083 226.929 C 380.219 223.287,384.065 219.187,386.405 215.926 C 386.917 215.212,387.560 214.345,387.835 213.998 C 388.109 213.652,388.333 213.325,388.333 213.273 C 388.333 213.220,388.550 212.855,388.815 212.463 C 389.974 210.748,390.833 209.390,390.833 209.275 C 390.833 209.207,391.095 208.741,391.415 208.241 C 391.735 207.741,391.981 207.313,391.961 207.291 C 391.941 207.268,392.241 206.672,392.629 205.966 C 393.016 205.260,393.333 204.638,393.333 204.583 C 393.333 204.529,393.588 203.944,393.898 203.284 C 394.704 201.572,395.717 199.120,395.720 198.875 C 395.721 198.760,395.789 198.667,395.871 198.667 C 395.953 198.667,395.981 198.604,395.934 198.528 C 395.887 198.452,396.115 197.683,396.441 196.820 C 396.766 195.956,397.060 195.063,397.092 194.833 C 397.125 194.604,397.417 193.527,397.741 192.439 C 398.064 191.351,398.291 190.400,398.245 190.325 C 398.199 190.251,398.239 190.142,398.333 190.083 C 398.428 190.025,398.471 189.921,398.429 189.853 C 398.387 189.785,398.499 189.059,398.678 188.240 C 399.386 185.002,399.687 182.779,399.662 180.973 C 399.656 180.545,399.713 180.158,399.787 180.112 C 399.960 180.005,399.955 170.486,399.782 170.213 C 399.711 170.101,399.657 169.688,399.663 169.296 C 399.686 167.719,399.237 164.579,398.592 161.814 C 398.458 161.243,398.385 160.719,398.427 160.649 C 398.470 160.580,398.428 160.475,398.333 160.417 C 398.239 160.358,398.201 160.247,398.249 160.169 C 398.297 160.091,398.076 159.169,397.758 158.120 C 397.440 157.071,397.138 155.976,397.087 155.687 C 397.036 155.398,396.765 154.583,396.484 153.876 C 396.203 153.170,395.964 152.458,395.951 152.296 C 395.939 152.133,395.886 152.000,395.833 152.000 C 395.781 152.000,395.727 151.869,395.713 151.708 C 395.700 151.548,395.422 150.840,395.095 150.136 C 394.768 149.432,394.500 148.769,394.500 148.664 C 394.500 148.409,391.999 143.411,391.222 142.112 C 389.977 140.031,388.086 137.063,387.541 136.333 C 384.300 131.993,381.676 128.976,378.784 126.260 C 377.814 125.349,377.058 124.541,377.106 124.464 C 377.153 124.388,377.118 124.346,377.029 124.371 C 376.939 124.396,376.349 123.994,375.718 123.477 C 372.251 120.641,366.164 116.487,364.626 115.908 C 364.466 115.848,364.372 115.740,364.416 115.668 C 364.460 115.596,364.403 115.547,364.290 115.559 C 364.176 115.571,363.071 115.086,361.833 114.481 C 359.034 113.112,357.301 112.314,357.083 112.293 C 356.992 112.284,356.207 111.988,355.340 111.635 C 354.472 111.282,353.592 110.963,353.383 110.925 C 353.174 110.887,352.301 110.621,351.443 110.334 C 350.584 110.046,349.761 109.793,349.612 109.771 C 349.464 109.750,349.296 109.685,349.239 109.627 C 349.181 109.570,349.029 109.563,348.900 109.613 C 348.772 109.662,348.667 109.615,348.667 109.508 C 348.667 109.401,348.604 109.352,348.528 109.399 C 348.452 109.446,347.368 109.232,346.119 108.923 C 344.870 108.613,343.695 108.401,343.508 108.450 C 343.312 108.501,343.167 108.458,343.167 108.350 C 343.167 108.231,343.011 108.199,342.750 108.265 C 342.483 108.332,342.333 108.299,342.333 108.174 C 342.333 108.060,342.206 108.018,342.032 108.073 C 341.770 108.156,340.619 103.938,340.580 102.750 C 340.577 102.658,340.534 102.508,340.484 102.417 C 340.434 102.325,340.381 102.063,340.367 101.833 C 340.353 101.604,340.119 100.709,339.847 99.844 C 339.575 98.979,339.390 98.210,339.436 98.135 C 339.482 98.061,339.450 98.000,339.364 98.000 C 339.278 98.000,339.206 97.831,339.203 97.625 C 339.201 97.419,338.927 96.543,338.594 95.680 C 338.261 94.816,337.970 93.982,337.946 93.826 C 337.842 93.143,335.864 88.359,334.896 86.450 C 334.673 86.010,334.542 85.567,334.604 85.466 C 334.670 85.359,334.642 85.329,334.538 85.393 C 334.436 85.456,334.306 85.340,334.241 85.127 C 334.115 84.722,332.455 81.605,331.420 79.833 C 331.072 79.237,330.704 78.598,330.602 78.413 C 327.119 72.068,317.704 61.597,310.917 56.522 C 310.275 56.042,309.450 55.422,309.083 55.144 C 306.095 52.878,296.090 47.294,294.333 46.911 C 294.196 46.882,293.472 46.589,292.725 46.262 C 291.978 45.935,291.288 45.667,291.193 45.667 C 291.097 45.667,290.365 45.403,289.566 45.081 C 288.767 44.759,287.881 44.455,287.598 44.406 C 287.315 44.356,287.058 44.244,287.027 44.157 C 286.997 44.069,286.916 44.032,286.848 44.074 C 286.781 44.116,286.035 43.928,285.191 43.657 C 284.347 43.385,283.415 43.130,283.120 43.090 C 282.825 43.050,281.549 42.754,280.284 42.433 C 279.020 42.112,277.884 41.888,277.760 41.936 C 277.635 41.984,277.486 41.946,277.428 41.852 C 277.370 41.758,277.212 41.724,277.076 41.776 C 276.940 41.828,276.729 41.788,276.608 41.687 C 276.486 41.586,276.348 41.541,276.301 41.588 C 276.254 41.635,275.286 41.523,274.149 41.340 C 271.041 40.838,269.029 40.646,266.083 40.570 C 264.617 40.532,263.304 40.494,263.167 40.487 C 260.848 40.361,254.781 40.803,251.363 41.345 C 250.233 41.525,249.240 41.628,249.155 41.576 C 249.070 41.523,249.000 41.568,249.000 41.675 C 249.000 41.798,248.851 41.832,248.594 41.767 C 248.370 41.711,248.148 41.728,248.101 41.805 C 247.810 42.275,246.824 41.978,246.377 41.287 C 243.826 37.335,239.191 31.668,235.193 27.609 C 230.106 22.447,222.988 16.788,217.667 13.677 C 216.979 13.275,216.079 12.738,215.667 12.484 C 214.028 11.474,207.558 8.191,206.667 7.918 C 206.438 7.847,205.753 7.541,205.145 7.236 C 204.537 6.932,203.993 6.729,203.937 6.786 C 203.880 6.842,203.833 6.814,203.833 6.722 C 203.833 6.631,203.734 6.556,203.613 6.556 C 203.491 6.556,202.822 6.318,202.124 6.028 C 201.427 5.738,200.739 5.500,200.595 5.500 C 200.451 5.500,200.333 5.421,200.333 5.323 C 200.333 5.226,200.269 5.187,200.191 5.235 C 200.113 5.283,199.472 5.101,198.766 4.829 C 198.061 4.557,197.244 4.293,196.950 4.242 C 196.657 4.191,196.392 4.078,196.361 3.990 C 196.330 3.903,196.250 3.865,196.184 3.906 C 196.117 3.947,195.355 3.758,194.490 3.486 C 193.624 3.213,192.617 2.952,192.250 2.905 C 191.883 2.859,191.558 2.748,191.527 2.659 C 191.497 2.570,191.414 2.534,191.344 2.577 C 191.273 2.621,190.335 2.434,189.258 2.162 C 188.181 1.890,187.238 1.706,187.162 1.753 C 187.085 1.800,186.974 1.759,186.914 1.663 C 186.854 1.566,186.668 1.530,186.500 1.583 C 186.332 1.637,186.146 1.601,186.086 1.504 C 186.026 1.407,185.916 1.365,185.843 1.411 C 185.769 1.457,184.368 1.268,182.729 0.991 C 179.753 0.488,178.027 0.310,176.372 0.336 C 175.889 0.343,175.402 0.291,175.289 0.220 C 174.998 0.037,163.993 0.043,163.880 0.226 M163.000 147.667 L 163.000 199.833 135.919 199.833 L 108.838 199.833 110.942 202.292 C 112.099 203.644,113.767 205.602,114.648 206.643 C 115.529 207.684,116.441 208.748,116.674 209.007 C 116.907 209.266,118.070 210.623,119.257 212.022 C 120.445 213.422,122.171 215.433,123.092 216.492 C 124.013 217.551,125.398 219.167,126.169 220.083 C 128.747 223.148,130.234 224.895,132.417 227.428 C 133.608 228.811,135.333 230.828,136.250 231.911 C 138.431 234.488,138.573 234.654,140.108 236.426 C 142.253 238.900,147.186 244.680,150.638 248.762 C 151.341 249.593,153.071 251.618,154.481 253.262 C 155.892 254.905,157.804 257.140,158.731 258.228 C 159.658 259.316,160.567 260.376,160.750 260.583 C 160.933 260.790,162.058 262.108,163.250 263.511 C 164.442 264.915,166.204 266.969,167.167 268.077 C 168.129 269.184,169.262 270.501,169.684 271.003 C 171.468 273.128,174.559 276.765,176.500 279.024 C 177.646 280.358,179.333 282.333,180.250 283.415 C 182.823 286.449,182.869 286.503,183.667 287.404 C 184.079 287.870,185.241 289.226,186.248 290.417 C 187.255 291.609,188.830 293.451,189.748 294.511 C 190.666 295.571,192.828 298.102,194.552 300.136 C 196.276 302.169,197.745 303.833,197.817 303.833 C 197.888 303.833,198.652 302.994,199.515 301.967 C 200.377 300.941,201.908 299.154,202.917 297.996 C 203.925 296.839,205.701 294.772,206.863 293.404 C 208.025 292.036,210.897 288.667,213.246 285.917 C 219.763 278.287,221.781 275.921,223.417 273.994 C 226.541 270.313,228.641 267.864,230.334 265.923 C 231.297 264.820,233.060 262.760,234.251 261.346 C 235.442 259.933,237.129 257.951,238.000 256.943 C 238.871 255.935,240.732 253.754,242.137 252.097 C 245.794 247.781,245.958 247.588,247.270 246.098 C 247.922 245.357,249.385 243.652,250.520 242.309 C 254.187 237.972,258.870 232.484,260.750 230.320 C 261.758 229.159,263.708 226.873,265.083 225.239 C 266.458 223.606,268.108 221.672,268.750 220.943 C 269.392 220.214,270.817 218.553,271.917 217.253 C 273.829 214.993,278.006 210.105,281.806 205.680 C 282.784 204.542,284.289 202.779,285.151 201.764 L 286.718 199.917 259.609 199.874 L 232.500 199.832 232.500 147.666 L 232.500 95.500 197.750 95.500 L 163.000 95.500 163.000 147.667 " stroke="none" fill="#A6A6A6" fill-rule="evenodd"></path></g></svg>