<svg id="svg" version="1.1" xmlns="http://www.w3.org/2000/svg" xmlns:xlink="http://www.w3.org/1999/xlink" width="400" height="400.56497175141243" viewBox="0, 0, 400,400.56497175141243">
  <g id="svgg">
    <path id="searchpath" d="M146.995 0.185 C 144.883 0.266,143.024 0.302,142.863 0.265 C 142.702 0.228,142.571 0.272,142.571 0.361 C 142.571 0.453,142.147 0.507,141.598 0.485 C 141.064 0.463,140.549 0.492,140.455 0.550 C 140.362 0.608,139.804 0.653,139.216 0.650 C 138.119 0.644,136.497 0.814,133.349 1.265 C 132.364 1.406,131.182 1.550,130.724 1.584 C 129.737 1.657,125.799 2.346,122.871 2.957 C 121.724 3.196,120.597 3.410,120.367 3.432 C 120.138 3.454,119.315 3.635,118.539 3.835 C 117.762 4.035,116.936 4.223,116.702 4.253 C 116.297 4.305,114.200 4.863,110.935 5.787 C 108.735 6.410,106.247 7.180,105.005 7.624 C 104.406 7.838,103.822 8.013,103.708 8.013 C 103.593 8.013,103.033 8.203,102.463 8.434 C 101.894 8.666,101.275 8.884,101.089 8.920 C 100.903 8.955,100.376 9.149,99.917 9.350 C 99.457 9.551,98.781 9.815,98.414 9.936 C 97.492 10.240,94.832 11.316,92.821 12.199 C 92.225 12.461,91.173 12.911,90.484 13.200 C 87.785 14.333,80.760 17.900,77.045 20.025 C 72.582 22.576,65.089 27.469,62.020 29.836 C 61.745 30.048,61.444 30.279,61.352 30.349 C 59.448 31.796,58.690 32.388,56.957 33.778 C 36.862 49.903,20.094 72.499,11.009 95.698 C 10.623 96.683,10.243 97.449,10.164 97.400 C 10.085 97.351,10.058 97.409,10.103 97.529 C 10.149 97.648,9.990 98.272,9.751 98.915 C 9.512 99.558,9.130 100.628,8.900 101.294 C 8.646 102.032,8.414 102.462,8.306 102.395 C 8.201 102.330,8.178 102.365,8.249 102.480 C 8.315 102.587,7.876 104.201,7.273 106.066 C 6.670 107.930,6.177 109.521,6.177 109.601 C 6.177 109.681,5.997 110.352,5.776 111.092 C 5.009 113.667,3.530 119.534,3.438 120.367 C 3.412 120.597,3.196 121.724,2.958 122.871 C 2.289 126.098,1.616 130.071,1.639 130.667 C 1.650 130.963,1.585 131.251,1.494 131.307 C 1.404 131.363,1.370 131.474,1.420 131.553 C 1.469 131.633,1.315 133.112,1.078 134.839 C 0.840 136.567,0.646 138.523,0.646 139.188 C 0.645 139.852,0.586 140.432,0.513 140.476 C 0.441 140.521,0.418 140.932,0.462 141.390 C 0.506 141.848,0.487 142.358,0.420 142.522 C 0.353 142.687,0.311 143.404,0.327 144.115 C 0.342 144.827,0.294 145.409,0.219 145.409 C 0.056 145.409,0.078 158.653,0.242 158.918 C 0.305 159.019,0.340 159.616,0.319 160.243 C 0.299 160.871,0.337 161.472,0.403 161.580 C 0.470 161.688,0.506 162.174,0.484 162.660 C 0.461 163.146,0.487 163.615,0.541 163.702 C 0.594 163.789,0.641 164.385,0.644 165.027 C 0.647 165.669,0.813 167.396,1.013 168.865 C 1.213 170.334,1.407 171.836,1.446 172.204 C 1.484 172.571,1.551 173.210,1.594 173.623 C 1.638 174.036,1.826 175.184,2.013 176.173 C 2.199 177.162,2.306 178.045,2.251 178.135 C 2.196 178.224,2.219 178.297,2.303 178.297 C 2.440 178.297,2.683 179.816,2.735 180.994 C 2.746 181.238,2.801 181.408,2.859 181.373 C 2.955 181.313,3.318 182.850,3.433 183.806 C 3.530 184.612,4.998 190.478,5.793 193.239 C 6.906 197.104,8.556 202.164,9.362 204.186 C 9.957 205.677,10.198 206.520,10.082 206.707 C 10.014 206.818,10.039 206.851,10.144 206.786 C 10.250 206.720,10.439 206.997,10.611 207.470 C 11.110 208.839,12.402 211.910,13.202 213.624 C 13.378 214.002,13.523 214.364,13.523 214.431 C 13.523 214.630,17.181 221.979,18.324 224.077 C 18.911 225.153,19.342 226.113,19.282 226.210 C 19.223 226.306,19.259 226.365,19.363 226.340 C 19.536 226.298,19.834 226.738,20.771 228.419 C 21.870 230.390,26.006 236.793,28.081 239.733 C 31.069 243.967,36.073 250.214,39.239 253.664 C 43.479 258.284,45.345 260.151,50.501 264.930 C 51.993 266.314,56.696 270.285,58.264 271.487 C 60.790 273.422,61.776 274.169,62.354 274.588 C 62.721 274.854,63.585 275.487,64.274 275.994 C 64.962 276.501,66.465 277.535,67.613 278.292 C 68.760 279.049,69.887 279.798,70.117 279.955 C 70.460 280.191,71.931 281.111,74.572 282.740 C 74.773 282.864,75.223 283.128,75.574 283.328 C 81.242 286.553,85.201 288.598,89.566 290.556 C 94.672 292.847,96.925 293.760,101.920 295.558 C 103.750 296.217,109.100 297.914,110.851 298.391 C 115.765 299.728,119.420 300.641,120.284 300.748 C 120.559 300.782,121.640 301.003,122.685 301.240 C 123.731 301.476,124.839 301.669,125.148 301.669 C 125.457 301.669,125.710 301.749,125.710 301.846 C 125.710 301.943,125.783 301.978,125.872 301.923 C 125.961 301.868,126.844 301.980,127.833 302.172 C 128.823 302.364,129.915 302.527,130.261 302.533 C 130.607 302.539,130.931 302.611,130.982 302.694 C 131.033 302.776,131.141 302.803,131.221 302.753 C 131.444 302.616,134.387 303.043,134.290 303.199 C 134.244 303.274,134.325 303.289,134.471 303.234 C 134.616 303.178,135.465 303.225,136.358 303.339 C 137.250 303.453,138.426 303.541,138.970 303.535 C 139.515 303.529,140.037 303.571,140.130 303.628 C 140.223 303.686,140.659 303.714,141.098 303.691 C 141.537 303.667,141.984 303.703,142.092 303.770 C 142.200 303.837,142.802 303.875,143.430 303.854 C 144.057 303.834,144.665 303.876,144.781 303.948 C 145.062 304.122,159.265 304.128,159.265 303.954 C 159.265 303.879,159.818 303.834,160.493 303.854 C 161.168 303.873,161.809 303.835,161.916 303.769 C 162.023 303.703,162.470 303.667,162.909 303.691 C 163.348 303.714,163.783 303.686,163.876 303.628 C 163.970 303.571,164.492 303.529,165.036 303.535 C 165.581 303.541,166.757 303.453,167.649 303.339 C 168.541 303.225,169.390 303.178,169.536 303.234 C 169.705 303.298,169.759 303.268,169.685 303.149 C 169.606 303.021,169.760 302.985,170.178 303.034 C 170.511 303.073,170.785 303.055,170.785 302.993 C 170.785 302.889,171.827 302.733,173.623 302.569 C 174.643 302.475,178.783 301.744,181.152 301.238 C 182.217 301.011,183.344 300.794,183.656 300.755 C 184.214 300.686,186.189 300.214,189.316 299.401 C 190.188 299.174,191.055 298.960,191.242 298.926 C 191.842 298.817,195.068 297.834,199.416 296.435 C 202.614 295.407,207.452 293.594,210.184 292.402 C 210.964 292.061,211.903 291.672,212.269 291.538 C 212.636 291.403,213.011 291.235,213.104 291.165 C 213.196 291.095,213.609 290.907,214.021 290.747 C 215.139 290.312,221.643 287.069,224.124 285.710 C 230.570 282.177,236.621 278.310,242.314 274.084 L 244.311 272.602 255.474 283.811 L 266.638 295.019 266.342 296.967 C 265.948 299.554,265.953 304.110,266.351 306.427 C 266.509 307.346,266.669 308.393,266.708 308.756 C 266.746 309.118,266.973 310.055,267.212 310.838 C 267.451 311.621,267.669 312.377,267.696 312.517 C 267.897 313.542,269.686 317.501,270.828 319.449 C 273.172 323.444,270.213 320.382,316.384 366.593 C 344.780 395.014,343.008 393.364,348.236 396.234 C 350.173 397.297,354.152 398.913,355.259 399.086 C 355.488 399.122,356.202 399.305,356.845 399.493 C 357.487 399.681,359.028 399.945,360.267 400.079 C 361.507 400.214,362.896 400.368,363.356 400.423 C 363.815 400.478,364.528 400.512,364.942 400.500 C 365.355 400.488,366.219 400.464,366.861 400.447 C 367.504 400.431,368.068 400.367,368.115 400.306 C 368.162 400.245,368.796 400.149,369.524 400.094 C 371.777 399.922,376.109 398.732,378.716 397.569 C 387.996 393.427,394.238 386.787,397.691 377.379 C 398.264 375.818,399.500 371.175,399.376 371.051 C 399.329 371.004,399.345 370.831,399.411 370.667 C 399.536 370.353,399.544 370.288,399.815 366.945 C 399.968 365.074,399.831 361.112,399.586 360.267 C 399.546 360.129,399.474 359.586,399.427 359.059 C 399.311 357.780,398.450 354.488,397.668 352.337 C 396.349 348.713,394.272 345.154,391.579 341.903 C 390.349 340.420,324.929 275.064,323.623 274.015 C 319.989 271.096,316.390 269.144,312.118 267.776 C 311.213 267.486,310.276 267.223,310.036 267.191 C 309.796 267.159,309.111 267.019,308.514 266.880 C 305.520 266.182,299.234 265.997,296.327 266.521 L 294.908 266.777 283.765 255.634 C 277.636 249.506,272.621 244.432,272.621 244.358 C 272.621 244.284,273.171 243.495,273.844 242.605 C 274.516 241.714,275.512 240.356,276.056 239.587 C 276.600 238.818,277.478 237.578,278.007 236.832 C 278.537 236.086,279.019 235.369,279.080 235.238 C 279.140 235.108,279.590 234.407,280.079 233.680 C 280.568 232.953,280.968 232.327,280.968 232.288 C 280.968 232.249,281.381 231.577,281.886 230.794 C 282.391 230.011,282.805 229.334,282.805 229.290 C 282.805 229.245,282.990 228.914,283.217 228.555 C 283.592 227.961,284.508 226.349,285.593 224.374 C 286.836 222.113,289.256 217.270,290.323 214.909 C 290.996 213.421,291.619 212.250,291.709 212.305 C 291.798 212.360,291.825 212.330,291.767 212.237 C 291.669 212.077,291.973 211.123,292.528 209.850 C 292.921 208.950,293.731 206.896,294.240 205.509 C 294.492 204.821,294.916 203.694,295.180 203.005 C 295.445 202.316,295.661 201.679,295.660 201.590 C 295.660 201.500,295.836 200.936,296.052 200.337 C 296.413 199.336,296.751 198.289,297.921 194.550 C 298.155 193.802,298.384 192.976,298.431 192.714 C 298.478 192.452,298.707 191.607,298.941 190.836 C 299.175 190.066,299.384 189.277,299.406 189.083 C 299.427 188.890,299.603 188.093,299.796 187.312 C 300.660 183.820,301.981 177.201,302.091 175.811 C 302.124 175.388,302.340 173.877,302.570 172.454 C 302.800 171.031,303.025 169.265,303.070 168.531 C 303.227 165.997,303.388 164.608,303.525 164.608 C 303.601 164.608,303.621 164.499,303.570 164.366 C 303.519 164.234,303.564 163.013,303.670 161.654 C 303.921 158.457,303.921 145.716,303.670 142.520 C 303.564 141.161,303.517 139.945,303.566 139.818 C 303.614 139.691,303.587 139.564,303.506 139.535 C 303.424 139.506,303.321 138.827,303.276 138.025 C 303.232 137.223,303.157 136.505,303.110 136.428 C 303.062 136.352,303.026 135.918,303.028 135.465 C 303.030 135.012,302.830 133.364,302.584 131.803 C 302.338 130.242,302.105 128.627,302.066 128.214 C 302.028 127.801,301.839 126.711,301.647 125.793 C 301.455 124.875,301.271 123.851,301.239 123.519 C 301.206 123.186,300.985 122.097,300.747 121.098 C 300.509 120.099,300.285 119.057,300.248 118.781 C 300.144 117.987,298.548 111.905,297.949 110.017 C 297.759 109.420,297.593 108.819,297.580 108.681 C 297.551 108.374,295.579 102.314,295.245 101.503 C 295.113 101.181,294.734 100.167,294.404 99.249 C 292.574 94.155,288.319 84.809,285.665 80.050 C 285.409 79.591,285.052 78.952,284.873 78.631 C 282.706 74.749,281.190 72.247,279.055 69.032 C 278.140 67.654,277.314 66.404,277.218 66.253 C 276.187 64.622,269.156 55.357,268.622 54.925 C 268.565 54.879,267.582 53.753,266.438 52.424 C 259.675 44.564,250.857 36.378,242.519 30.217 C 241.711 29.620,240.799 28.944,240.492 28.715 C 238.621 27.317,234.080 24.291,231.412 22.664 C 230.922 22.365,230.321 21.998,230.077 21.848 C 225.288 18.914,215.502 13.855,212.187 12.600 C 211.866 12.479,210.964 12.103,210.184 11.766 C 208.647 11.101,207.751 10.747,204.925 9.688 C 200.931 8.191,200.535 8.057,196.077 6.680 C 192.546 5.590,191.643 5.321,191.283 5.255 C 191.073 5.217,190.188 4.999,189.316 4.771 C 186.222 3.964,179.687 2.533,178.615 2.428 C 178.302 2.398,177.145 2.204,176.043 1.998 C 174.942 1.791,173.796 1.625,173.497 1.629 C 173.199 1.633,172.912 1.568,172.860 1.483 C 172.808 1.399,172.700 1.370,172.621 1.419 C 172.542 1.468,171.053 1.316,169.314 1.081 C 166.272 0.670,164.522 0.523,162.644 0.520 C 162.161 0.519,161.699 0.477,161.617 0.427 C 161.480 0.342,160.027 0.285,153.339 0.104 C 151.962 0.067,149.107 0.103,146.995 0.185 M155.968 29.867 C 157.047 29.860,157.930 29.920,157.930 30.002 C 157.930 30.083,158.193 30.119,158.516 30.082 C 158.838 30.044,160.359 30.143,161.896 30.303 C 163.433 30.462,164.969 30.583,165.308 30.573 C 165.648 30.563,165.969 30.625,166.023 30.712 C 166.077 30.799,166.221 30.832,166.344 30.785 C 166.467 30.738,167.535 30.856,168.718 31.049 C 169.900 31.241,171.169 31.429,171.537 31.466 C 171.905 31.503,173.094 31.726,174.179 31.961 C 175.265 32.195,176.335 32.387,176.558 32.387 C 176.780 32.387,176.962 32.467,176.962 32.564 C 176.962 32.661,177.037 32.694,177.129 32.638 C 177.221 32.581,177.851 32.686,178.529 32.872 C 179.207 33.058,180.014 33.253,180.323 33.306 C 182.346 33.648,189.644 35.889,193.740 37.426 C 199.367 39.537,206.090 42.634,210.351 45.079 C 218.138 49.547,225.694 54.826,230.551 59.193 C 230.872 59.482,231.772 60.274,232.550 60.953 C 236.655 64.534,242.498 70.669,245.993 75.068 C 250.451 80.678,253.022 84.345,255.924 89.232 C 256.414 90.058,256.991 91.015,257.206 91.357 C 257.420 91.699,257.596 92.020,257.596 92.070 C 257.596 92.120,257.772 92.440,257.988 92.783 C 258.625 93.794,261.024 98.547,262.306 101.336 C 263.471 103.871,263.676 104.365,265.114 108.097 C 265.503 109.107,266.036 110.487,266.299 111.164 C 266.563 111.841,266.778 112.478,266.778 112.580 C 266.778 112.681,266.954 113.254,267.170 113.853 C 268.074 116.367,270.231 124.160,270.373 125.426 C 270.395 125.628,270.606 126.657,270.842 127.713 C 271.077 128.769,271.305 129.939,271.348 130.313 C 271.391 130.688,271.588 131.879,271.784 132.961 C 271.981 134.043,272.103 135.030,272.055 135.155 C 272.007 135.280,272.037 135.425,272.122 135.477 C 272.207 135.529,272.271 135.814,272.265 136.108 C 272.258 136.403,272.413 138.022,272.610 139.706 C 272.806 141.391,272.973 143.043,272.980 143.379 C 272.987 143.715,273.019 144.629,273.051 145.409 C 273.116 147.011,273.161 153.794,273.128 156.882 C 273.116 158.004,273.039 158.963,272.958 159.013 C 272.877 159.063,272.850 159.351,272.899 159.651 C 272.948 159.952,272.830 161.585,272.639 163.279 C 272.447 164.974,272.252 166.811,272.205 167.362 C 272.158 167.913,271.964 169.222,271.773 170.271 C 271.583 171.320,271.391 172.484,271.348 172.859 C 271.305 173.233,271.078 174.402,270.843 175.456 C 270.609 176.510,270.391 177.579,270.359 177.832 C 270.183 179.222,268.048 186.927,267.175 189.320 C 266.957 189.919,266.778 190.502,266.778 190.617 C 266.778 190.731,266.585 191.293,266.349 191.865 C 266.113 192.437,265.895 193.018,265.865 193.155 C 265.803 193.439,265.155 195.140,264.403 196.995 C 262.825 200.888,259.179 208.502,257.989 210.389 C 257.773 210.732,257.596 211.052,257.596 211.102 C 257.596 211.152,257.420 211.473,257.206 211.815 C 256.991 212.157,256.414 213.114,255.924 213.940 C 252.991 218.879,250.257 222.779,245.956 228.160 C 244.045 230.550,243.651 231.001,240.299 234.634 C 232.544 243.042,222.033 251.420,212.131 257.085 C 211.841 257.251,211.077 257.688,210.434 258.055 C 206.987 260.024,199.772 263.449,196.160 264.830 C 191.361 266.666,189.504 267.302,185.225 268.578 C 182.774 269.309,177.220 270.686,175.960 270.874 C 175.639 270.922,174.662 271.114,173.791 271.300 C 172.919 271.486,171.867 271.672,171.454 271.712 C 171.040 271.753,169.785 271.940,168.664 272.128 C 166.656 272.465,165.411 272.616,163.940 272.699 C 163.527 272.723,162.194 272.836,160.979 272.952 C 159.764 273.067,158.580 273.126,158.350 273.081 C 158.119 273.037,157.930 273.071,157.930 273.156 C 157.930 273.304,156.738 273.335,151.503 273.325 C 150.217 273.323,148.245 273.320,147.120 273.320 C 145.941 273.319,145.075 273.251,145.075 273.160 C 145.075 273.073,144.886 273.037,144.655 273.081 C 144.425 273.126,143.241 273.068,142.026 272.954 C 140.811 272.839,139.441 272.728,138.982 272.707 C 137.496 272.639,135.893 272.419,135.893 272.283 C 135.893 272.211,135.752 272.188,135.580 272.233 C 135.408 272.278,134.638 272.199,133.869 272.056 C 133.100 271.914,132.095 271.762,131.636 271.718 C 131.177 271.675,130.050 271.473,129.132 271.271 C 128.214 271.068,127.312 270.882,127.129 270.857 C 126.945 270.833,126.757 270.797,126.711 270.779 C 126.665 270.760,126.568 270.755,126.494 270.768 C 126.226 270.813,120.695 269.414,117.863 268.585 C 113.597 267.336,110.211 266.168,106.427 264.640 C 105.417 264.232,104.237 263.759,103.804 263.588 C 103.064 263.296,101.482 262.559,98.164 260.960 C 96.648 260.229,93.339 258.496,92.237 257.855 C 91.870 257.642,91.306 257.319,90.985 257.137 C 90.482 256.853,89.934 256.523,88.063 255.383 C 86.838 254.635,80.836 250.618,80.306 250.190 C 79.948 249.902,79.036 249.215,78.278 248.664 C 70.742 243.188,60.714 233.206,54.900 225.396 C 54.105 224.329,53.268 223.230,53.040 222.953 C 52.496 222.294,48.065 215.683,47.951 215.359 C 47.902 215.221,47.769 214.996,47.654 214.858 C 47.539 214.720,46.909 213.669,46.254 212.521 C 45.598 211.373,44.976 210.284,44.871 210.100 C 44.234 208.990,42.109 204.798,40.977 202.421 C 39.211 198.712,37.073 193.228,35.606 188.648 C 34.744 185.953,33.457 181.401,33.311 180.527 C 33.263 180.238,33.033 179.287,32.801 178.413 C 32.568 177.539,32.389 176.761,32.402 176.684 C 32.416 176.607,32.412 176.507,32.393 176.461 C 32.375 176.415,32.339 176.227,32.315 176.043 C 32.290 175.860,32.104 174.959,31.902 174.041 C 31.699 173.124,31.500 172.034,31.460 171.621 C 31.419 171.207,31.230 169.941,31.040 168.807 C 30.850 167.674,30.734 166.644,30.782 166.517 C 30.831 166.391,30.796 166.242,30.706 166.186 C 30.616 166.131,30.549 165.847,30.558 165.555 C 30.575 164.997,30.500 164.097,30.207 161.352 C 29.698 156.580,29.697 146.423,30.204 141.903 C 30.302 141.031,30.421 139.829,30.468 139.232 C 30.666 136.728,30.718 136.284,31.044 134.341 C 31.232 133.220,31.419 131.965,31.460 131.551 C 31.500 131.138,31.699 130.048,31.902 129.131 C 32.104 128.213,32.290 127.312,32.315 127.129 C 32.339 126.945,32.375 126.757,32.393 126.711 C 32.412 126.665,32.417 126.568,32.404 126.494 C 32.378 126.337,33.090 123.414,33.673 121.285 C 33.900 120.459,34.120 119.595,34.162 119.366 C 34.347 118.355,36.691 111.183,37.654 108.681 C 37.990 107.809,38.439 106.644,38.651 106.093 C 39.015 105.151,39.529 103.956,40.231 102.421 C 40.399 102.053,40.742 101.302,40.993 100.751 C 41.593 99.438,43.374 95.864,44.114 94.491 C 45.769 91.417,47.030 89.206,47.493 88.564 C 47.692 88.289,47.896 87.951,47.947 87.813 C 48.065 87.492,52.500 80.879,53.042 80.217 C 53.267 79.942,54.099 78.852,54.892 77.796 C 60.953 69.719,70.637 60.075,78.276 54.508 C 79.032 53.957,80.022 53.218,80.475 52.867 C 81.273 52.248,86.863 48.507,88.003 47.830 C 88.312 47.646,88.752 47.381,88.982 47.241 C 92.400 45.157,96.872 42.782,100.751 40.991 C 101.302 40.736,102.053 40.389,102.421 40.219 C 104.166 39.412,107.104 38.217,109.182 37.471 C 109.871 37.223,110.997 36.816,111.686 36.567 C 113.561 35.887,115.558 35.230,116.014 35.143 C 116.237 35.101,116.988 34.887,117.684 34.667 C 119.313 34.152,121.972 33.426,122.645 33.312 C 122.934 33.263,123.873 33.042,124.732 32.821 C 125.591 32.600,126.407 32.422,126.544 32.426 C 126.682 32.430,127.659 32.239,128.715 32.001 C 129.770 31.764,131.043 31.524,131.542 31.469 C 132.042 31.414,133.319 31.221,134.380 31.039 C 135.442 30.857,136.836 30.673,137.479 30.629 C 138.122 30.585,139.839 30.430,141.294 30.283 C 142.750 30.137,144.196 30.047,144.508 30.084 C 144.820 30.120,145.075 30.086,145.075 30.007 C 145.075 29.928,146.048 29.885,147.237 29.910 C 148.426 29.935,149.459 29.895,149.533 29.821 C 149.606 29.747,150.643 29.730,151.836 29.784 C 153.030 29.837,154.889 29.875,155.968 29.867 " stroke="none" fill="#A6A6A6" fill-rule="evenodd">
    </path></g></svg>